<?xml version="1.0" encoding="UTF-8"?>
<svg xmlns="http://www.w3.org/2000/svg" width="170" height="57" viewBox="0 0 170 57" fill="none">
  <g clip-path="url(#clip0_1035_332)">
    <path d="M67.1343 38.1373C61.9713 38.1373 57.7676 42.4042 57.7676 47.6541C57.7676 52.904 61.9932 56.9979 67.1856 56.9979C72.3779 56.9979 76.5523 52.7825 76.5523 47.6062C76.5523 42.43 72.3303 38.141 67.138 38.141L67.1343 38.1373ZM67.1343 40.5671C70.9645 40.5671 74.0843 43.7332 74.0843 47.6283C74.0843 51.5234 71.0414 54.6417 67.1599 54.6417C63.2785 54.6417 60.2612 51.5823 60.2612 47.6799C60.2612 43.7774 63.3444 40.5671 67.138 40.5671H67.1343Z" fill="#F7F8F8"></path>
    <path d="M102.269 41.4396H105.616V39.0356H96.4539V41.4396H99.852V54.5644H96.4539V56.9942H105.616V54.5644H102.269V41.4396Z" fill="#F7F8F8"></path>
    <path d="M134.62 38.1373C129.457 38.1373 125.253 42.4042 125.253 47.6541C125.253 52.904 129.475 56.9979 134.668 56.9979C139.86 56.9979 144.034 52.7825 144.034 47.6062C144.034 42.43 139.809 38.141 134.616 38.141L134.62 38.1373ZM134.62 40.5671C138.45 40.5671 141.57 43.7332 141.57 47.6283C141.57 51.5234 138.527 54.6417 134.646 54.6417C130.764 54.6417 127.747 51.5823 127.747 47.6799C127.747 43.7774 130.83 40.5671 134.624 40.5671H134.62Z" fill="#F7F8F8"></path>
    <path d="M121.918 49.7415C121.083 52.6131 118.527 54.6638 115.385 54.6638C111.551 54.6638 108.545 51.6302 108.545 47.7608C108.545 43.8915 111.602 40.7107 115.359 40.7107C118.428 40.7107 121.006 42.776 121.892 45.5998H124.452C123.503 41.4286 119.79 38.3029 115.359 38.3029C110.24 38.3029 106.073 42.533 106.073 47.7351C106.073 52.9371 110.259 56.9979 115.407 56.9979C119.819 56.9979 123.507 53.887 124.444 49.7415H121.918Z" fill="#F7F8F8"></path>
    <path d="M158.198 44.3628C158.198 41.4728 155.554 39.0356 152.42 39.0356H145.649V56.9979H148.246V52.3039C148.246 52.3039 148.242 52.2892 148.242 52.2818V47.3596C148.242 47.3338 148.257 47.3154 148.257 47.2896H148.246V41.4433H152.446C154.185 41.4433 155.478 42.7576 155.598 44.3665C155.683 45.4636 155.408 46.3324 154.65 46.9509C154.595 47.0319 154.317 47.2197 154.225 47.2786C153.877 47.4995 153.595 47.6394 153.207 47.783C152.717 47.9634 152.343 48.0186 151.926 48.0628C151.523 48.1033 151.124 48.1511 150.721 48.1659C150.278 48.1769 149.835 48.1916 149.395 48.1916C149.366 48.1916 149.344 48.1806 149.318 48.1769L149.333 48.7034L155.547 57.0053H158.506L153.42 50.419C157.631 49.366 158.202 46.9657 158.202 44.3738L158.198 44.3628Z" fill="#F7F8F8"></path>
    <path d="M161.842 54.5644V48.6187H169.626V46.1152H161.842V41.4396H169.875V39.0356H159.425V56.9942H170V54.5644H161.842Z" fill="#F7F8F8"></path>
    <path d="M96.1061 47.5731H86.8565V49.9698H93.3817C92.5066 52.7273 90.0239 54.6859 86.97 54.6859C83.1691 54.6859 80.1958 51.6854 80.1958 47.8566C80.1958 45.5188 81.3236 43.4571 83.0336 42.1907C83.0922 42.1502 83.1398 42.095 83.2021 42.0545C83.2936 41.9919 83.3962 41.9514 83.4914 41.8925C84.1761 41.4801 84.9304 41.1672 85.7543 41.0015C86.0729 40.9426 86.4024 40.9095 86.7357 40.8985C86.8089 40.8948 86.8821 40.8801 86.959 40.8764C89.9946 40.8801 92.5432 42.9196 93.422 45.7103H95.9559C95.0149 41.5832 91.3385 38.4907 86.948 38.4907C83.2936 38.4907 80.1372 40.6739 78.6542 43.8143C78.0793 45.0034 77.7498 46.3361 77.7498 47.7793C77.7498 47.7867 77.7498 47.794 77.7498 47.8014C77.7498 47.8087 77.7498 47.8161 77.7498 47.8235C77.7498 52.8746 81.8985 56.9869 86.9957 56.9869C91.2579 56.9869 94.8171 54.0527 95.8534 50.106C95.8644 50.106 95.8754 50.0987 95.8864 50.0987C95.8973 50.0361 95.9047 49.9735 95.9157 49.9109C95.923 49.8778 95.9413 49.8447 95.9486 49.8115H95.934C96.0438 49.2004 96.1134 48.5708 96.1134 47.9045V47.5658L96.1061 47.5731Z" fill="#F7F8F8"></path>
    <path d="M48.7854 54.719V38.984H46.3796V56.9942H57.7677V56.858V55.1755V54.719H48.7854Z" fill="#F7F8F8"></path>
    <path d="M122.057 49.679C121.215 52.5763 118.637 54.6417 115.466 54.6417C111.595 54.6417 108.567 51.5823 108.567 47.6799C108.567 43.7774 111.65 40.5671 115.444 40.5671C118.541 40.5671 121.138 42.6509 122.035 45.4967H124.616C123.661 41.2887 119.915 38.1373 115.444 38.1373C110.281 38.1373 106.077 42.4042 106.077 47.6541C106.077 52.904 110.299 56.9979 115.491 56.9979C119.944 56.9979 123.661 53.8612 124.605 49.679H122.057Z" fill="#F7F8F8"></path>
    <path d="M39.8873 56.9942H0V0L39.8873 56.9942Z" fill="#F7F8F8"></path>
    <path d="M27.3533 35.6522H43.1427C43.1427 35.5087 43.1537 35.3651 43.1537 35.2215C43.1537 23.2417 33.494 13.5261 21.5751 13.5261C18.5615 13.5261 15.6943 14.1482 13.0872 15.2711L27.3496 35.6522H27.3533Z" fill="#F7F8F8"></path>
    <path d="M28.8472 37.7875L37.3827 49.9809C40.4183 46.7006 42.4505 42.4705 42.9998 37.7875H28.8508H28.8472Z" fill="#F7F8F8"></path>
  </g>
  <defs>
    <clipPath id="clip0_1035_332">
      <rect width="170" height="56.9942" fill="white"></rect>
    </clipPath>
  </defs>
</svg>
